<svg xmlns="http://www.w3.org/2000/svg" xmlns:xlink="http://www.w3.org/1999/xlink" width="1344" zoomAndPan="magnify" viewBox="0 0 1008 1295.99994" height="1728" preserveAspectRatio="xMidYMid meet" version="1.0"><defs><g/></defs><path fill="rgb(100%, 94.119263%, 83.918762%)" d="M 413.863281 705.910156 C 413.863281 705.910156 314.542969 659.128906 251.765625 757.09375 C 284.332031 745.890625 293.910156 787.339844 293.910156 787.339844 C 293.910156 787.339844 315.082031 723.410156 344.828125 765.902344 C 346.722656 720.742188 413.863281 705.910156 413.863281 705.910156 Z M 413.863281 705.910156 " fill-opacity="1" fill-rule="evenodd"/><path fill="rgb(100%, 94.119263%, 83.918762%)" d="M 600.257812 701.890625 C 600.257812 701.890625 703.90625 665.695312 756.097656 769.648438 C 724.84375 755.160156 711.015625 795.453125 711.015625 795.453125 C 711.015625 795.453125 696.644531 729.589844 662.609375 768.757812 C 665.429688 723.679688 600.257812 701.890625 600.257812 701.890625 Z M 600.257812 701.890625 " fill-opacity="1" fill-rule="evenodd"/><path fill="rgb(100%, 68.629456%, 32.939148%)" d="M 485.523438 944.445312 C 339.730469 937.066406 308.785156 879.007812 305.578125 794.5625 C 305.347656 788.460938 316.046875 773.203125 326.671875 794.5625 C 343.667969 828.710938 379.402344 841.921875 415.5625 841.921875 Z M 485.523438 944.445312 " fill-opacity="1" fill-rule="evenodd"/><path fill="rgb(100%, 68.629456%, 32.939148%)" d="M 445.734375 937.066406 C 463.851562 942.746094 483.902344 945.566406 504.992188 945.566406 C 586.890625 945.566406 653.339844 902.878906 653.339844 812.835938 C 653.339844 722.675781 586.890625 619.226562 504.992188 619.226562 C 423.058594 619.226562 356.648438 722.675781 356.648438 812.835938 C 356.648438 830.027344 359.042969 845.4375 363.527344 859.230469 Z M 445.734375 937.066406 " fill-opacity="1" fill-rule="evenodd"/><path fill="rgb(100%, 68.629456%, 32.939148%)" d="M 557.457031 921.617188 C 546.175781 961.480469 564.523438 977.472656 580.59375 968.550781 C 601.496094 956.847656 626.527344 918.253906 626.027344 887.929688 C 619.035156 868.769531 557.457031 921.617188 557.457031 921.617188 Z M 557.457031 921.617188 " fill-opacity="1" fill-rule="evenodd"/><path fill="rgb(100%, 68.629456%, 32.939148%)" d="M 451.257812 921.617188 C 462.539062 961.480469 444.1875 977.472656 428.117188 968.550781 C 407.21875 956.847656 382.183594 918.253906 382.6875 887.929688 C 389.679688 868.769531 451.257812 921.617188 451.257812 921.617188 Z M 451.257812 921.617188 " fill-opacity="1" fill-rule="evenodd"/><path fill="rgb(100%, 68.629456%, 32.939148%)" d="M 654.882812 580.789062 C 657.203125 587.472656 729.867188 551.429688 736.976562 501.90625 C 694.984375 513.691406 654.882812 516.742188 654.882812 516.742188 C 654.882812 516.742188 729.675781 477.492188 729.675781 405.023438 C 654.882812 448.019531 624.015625 446.707031 624.015625 446.707031 Z M 654.882812 580.789062 " fill-opacity="1" fill-rule="evenodd"/><path fill="rgb(100%, 68.629456%, 32.939148%)" d="M 351.976562 573.371094 C 349.65625 580.054688 276.992188 551.429688 269.882812 501.90625 C 311.914062 513.691406 351.976562 509.324219 351.976562 509.324219 C 351.976562 509.324219 277.183594 477.492188 277.183594 405.023438 C 351.976562 448.019531 382.839844 439.289062 382.839844 439.289062 Z M 351.976562 573.371094 " fill-opacity="1" fill-rule="evenodd"/><path fill="rgb(100%, 68.629456%, 32.939148%)" d="M 501.285156 367.050781 C 592.648438 367.050781 653.339844 430.171875 653.339844 507.972656 C 653.339844 513.496094 652.992188 518.941406 652.332031 524.234375 C 662.492188 539.570312 668.171875 556.722656 668.171875 574.722656 C 668.171875 640.277344 608.253906 693.394531 501.285156 693.394531 C 394.277344 693.394531 334.398438 640.277344 334.398438 574.722656 C 334.398438 556.722656 340.078125 539.570312 350.199219 524.234375 C 349.542969 518.941406 349.230469 513.496094 349.230469 507.972656 C 349.230469 430.171875 409.882812 367.050781 501.285156 367.050781 Z M 501.285156 367.050781 " fill-opacity="1" fill-rule="evenodd"/><path fill="rgb(100%, 94.119263%, 83.918762%)" d="M 645.804688 391.429688 C 653.105469 356.082031 644.453125 315.636719 620.308594 315.171875 C 599.757812 314.789062 601.921875 347.621094 594.308594 374.816406 C 586.699219 401.972656 570.472656 407.691406 570.203125 422.949219 C 569.855469 442.574219 594.425781 455.167969 612.621094 447.207031 C 630.816406 439.289062 643.0625 404.753906 645.804688 391.429688 Z M 645.804688 391.429688 " fill-opacity="1" fill-rule="evenodd"/><path fill="rgb(100%, 94.119263%, 83.918762%)" d="M 365.496094 391.429688 C 358.15625 356.082031 366.847656 315.636719 390.992188 315.171875 C 411.542969 314.789062 406.675781 345.960938 416.992188 374.816406 C 427.265625 403.671875 440.828125 407.691406 441.097656 422.949219 C 441.445312 442.574219 416.875 455.167969 398.679688 447.207031 C 380.484375 439.289062 368.238281 404.753906 365.496094 391.429688 Z M 365.496094 391.429688 " fill-opacity="1" fill-rule="evenodd"/><path fill="rgb(100%, 68.629456%, 32.939148%)" d="M 403.703125 736.195312 C 395.203125 771.269531 364.105469 797.34375 344.867188 783.167969 C 325.589844 768.953125 344.867188 712.011719 403.703125 690.921875 C 423.867188 680.644531 412.238281 701.121094 403.703125 736.195312 Z M 403.703125 736.195312 " fill-opacity="1" fill-rule="evenodd"/><path fill="rgb(100%, 68.629456%, 32.939148%)" d="M 605.746094 736.195312 C 614.28125 771.269531 645.378906 797.34375 664.617188 783.167969 C 683.855469 768.953125 664.617188 712.011719 605.746094 690.921875 C 585.617188 680.644531 597.246094 701.121094 605.746094 736.195312 Z M 605.746094 736.195312 " fill-opacity="1" fill-rule="evenodd"/><path fill="rgb(52.938843%, 18.03894%, 0%)" d="M 620 692.582031 L 620.347656 693.085938 C 620.925781 693.394531 621.507812 693.742188 622.085938 694.050781 C 628.074219 693.277344 634.332031 692.8125 640.820312 692.777344 C 689.691406 692.503906 732.070312 714.753906 759.148438 768.722656 C 760.734375 771.851562 757.449219 775.25 754.28125 773.742188 C 743.660156 768.796875 734.929688 770.535156 727.277344 777.296875 C 722.992188 781.121094 719.4375 786.21875 716.617188 791.859375 C 715.804688 793.519531 715.1875 794.871094 714.761719 795.992188 L 714.222656 797.304688 C 713.023438 800.859375 707.925781 800.550781 707.113281 796.882812 C 707.035156 796.648438 706.957031 796.261719 706.84375 795.800781 L 706.148438 793.132812 C 705.335938 790.199219 704.332031 787.109375 703.132812 783.980469 C 701.125 778.6875 698.808594 774.011719 696.21875 770.148438 C 690.269531 761.382812 683.855469 758.253906 675.9375 762.5 C 676.789062 772.3125 673.929688 780.695312 666.703125 786.027344 C 662.839844 788.886719 658.628906 790.351562 654.226562 790.625 L 655.039062 790.972656 C 655.925781 798.582031 656.351562 806.308594 656.351562 814.03125 C 656.351562 849.148438 646.269531 878.351562 628.152344 900.523438 C 623.628906 928.53125 602.539062 961.25 581.714844 972.914062 C 564.292969 982.648438 550.347656 969.824219 549.804688 945.875 C 535.707031 948.886719 520.484375 950.511719 504.296875 950.511719 C 495.027344 950.511719 485.988281 950.007812 477.257812 948.886719 C 470.378906 948.464844 463.773438 947.960938 457.398438 947.265625 C 456.355469 970.289062 442.605469 982.496094 425.566406 972.914062 C 412.78125 965.769531 399.878906 950.664062 390.800781 933.589844 C 328.527344 911.804688 303.917969 867.804688 301.214844 795.878906 C 301.019531 791.011719 304.804688 784.480469 309.789062 782.085938 C 316.703125 778.765625 323.8125 782.976562 329.335938 794.101562 L 330.417969 796.148438 C 335.867188 806.382812 343.320312 814.84375 352.398438 821.449219 C 352.324219 819.015625 352.246094 816.542969 352.246094 814.03125 C 352.246094 806.460938 352.671875 798.851562 353.519531 791.320312 C 349.773438 790.738281 346.140625 789.347656 342.820312 786.875 C 334.9375 781.082031 332.273438 771.617188 333.855469 760.6875 C 325.433594 753.113281 317.980469 755.085938 310.332031 764.125 C 307.355469 767.640625 304.574219 772.082031 302.023438 777.101562 C 300.519531 780.078125 299.203125 783.089844 298.046875 785.949219 L 296.886719 789.117188 C 296.808594 789.308594 296.769531 789.425781 296.695312 789.582031 C 295.535156 793.097656 290.433594 792.902344 289.585938 789.273438 L 289.199219 787.882812 C 288.890625 786.761719 288.425781 785.292969 287.769531 783.632812 C 285.566406 777.722656 282.554688 772.199219 278.691406 767.988281 C 271.816406 760.453125 263.277344 757.789062 252.230469 761.574219 C 248.90625 762.734375 245.96875 759.023438 247.902344 756.089844 C 280.46875 705.292969 324.933594 687.597656 373.53125 692.96875 C 378.167969 693.433594 382.6875 694.203125 387.050781 695.054688 C 391.535156 687.871094 396.402344 680.953125 401.578125 674.425781 L 408.339844 677.863281 C 405.402344 681.535156 402.582031 685.28125 399.839844 689.183594 C 400.765625 688.835938 401.695312 688.449219 402.621094 688.101562 C 404.550781 687.40625 406.675781 688.449219 407.371094 690.378906 C 408.066406 692.273438 407.0625 694.4375 405.132812 695.132812 C 379.015625 704.519531 358.96875 721.941406 348.460938 742.105469 C 339.457031 759.296875 339.417969 775.09375 347.222656 780.925781 C 363.410156 792.824219 392.152344 769.492188 400.265625 736.039062 C 400.765625 734.070312 402.773438 732.835938 404.746094 733.296875 C 406.753906 733.761719 407.992188 735.808594 407.488281 737.777344 C 404.203125 751.300781 397.792969 763.429688 389.910156 772.777344 C 392.769531 774.011719 395.859375 775.015625 399.257812 775.789062 C 403.816406 776.832031 403.894531 783.246094 399.375 784.441406 C 388.636719 787.222656 379.90625 787.957031 373.027344 787.03125 C 369.746094 788.847656 366.382812 790.160156 363.0625 790.894531 C 364.683594 792.785156 366.617188 794.679688 368.394531 795.914062 C 373.957031 799.855469 381.796875 802.597656 392.460938 803.410156 C 397.171875 803.796875 398.140625 810.324219 393.695312 812.023438 C 378.359375 817.855469 367.234375 818.863281 359.699219 816.582031 L 359.664062 814.03125 C 359.664062 816.929688 359.738281 819.789062 359.894531 822.609375 C 362.636719 824.308594 366.308594 826.085938 368.355469 826.898438 C 375.539062 829.792969 384.8125 831.300781 396.246094 830.449219 C 400.960938 830.0625 402.890625 836.320312 398.835938 838.71875 C 382.957031 847.949219 371.601562 851.621094 364.183594 851.621094 C 364.839844 854.246094 365.574219 856.835938 366.382812 859.34375 C 367.042969 861.277344 365.960938 863.363281 364.027344 863.980469 C 362.058594 864.636719 359.972656 863.554688 359.351562 861.585938 C 356.222656 852.003906 354.097656 841.730469 353.054688 830.875 C 340.152344 822.761719 329.761719 811.597656 322.691406 797.382812 L 321.996094 796.03125 C 318.367188 789.273438 315.390625 787.648438 312.996094 788.769531 C 310.714844 789.851562 308.515625 793.597656 308.59375 795.566406 C 311.101562 861.585938 332.15625 902.570312 386.203125 924.050781 C 381.101562 912.191406 378.050781 899.867188 378.207031 889.089844 C 378.246094 887.003906 379.945312 885.382812 381.992188 885.421875 C 384.039062 885.421875 385.660156 887.121094 385.621094 889.167969 C 385.199219 916.285156 407.796875 954.488281 429.199219 966.464844 C 444.382812 974.964844 456.28125 956.847656 446.929688 923.742188 C 446.390625 921.808594 447.550781 919.761719 449.519531 919.183594 C 451.488281 918.640625 453.535156 919.761719 454.078125 921.730469 C 455.699219 927.410156 456.664062 932.78125 457.128906 937.722656 C 463.851562 939.386719 470.804688 940.621094 477.992188 941.511719 C 480.308594 941.664062 482.664062 941.820312 485.019531 941.894531 C 485.601562 941.972656 486.140625 942.128906 486.644531 942.398438 C 492.398438 942.824219 498.3125 943.09375 504.296875 943.09375 C 520.679688 943.09375 536.015625 941.433594 550.078125 938.1875 C 550.539062 933.089844 551.542969 927.566406 553.167969 921.730469 C 553.746094 919.761719 555.792969 918.640625 557.765625 919.183594 C 559.734375 919.761719 560.894531 921.808594 560.3125 923.742188 C 550.964844 956.847656 562.902344 974.964844 578.085938 966.464844 C 599.484375 954.488281 622.085938 916.285156 621.660156 889.167969 C 621.621094 887.121094 623.246094 885.421875 625.292969 885.421875 C 626.722656 885.382812 627.996094 886.191406 628.613281 887.390625 C 635.566406 876.921875 640.859375 865.101562 644.296875 851.96875 C 635.878906 853.394531 623.976562 850.730469 608.332031 841.613281 C 604.277344 839.21875 606.207031 832.960938 610.921875 833.269531 C 622.164062 834.160156 631.589844 832.34375 639.277344 828.867188 C 642.328125 827.476562 646.730469 823.691406 648.78125 821.835938 C 648.820312 820.5625 648.855469 819.246094 648.894531 817.894531 C 637.808594 819.324219 624.675781 817.933594 609.144531 811.984375 C 604.703125 810.285156 605.667969 803.757812 610.378906 803.410156 C 619.457031 802.714844 632.363281 799.703125 645.457031 789.8125 C 641.902344 788.886719 638.273438 787.339844 634.757812 785.214844 C 627.726562 785.5625 618.761719 784.480469 607.558594 781.660156 C 603.039062 780.503906 603.15625 774.011719 607.714844 773.007812 C 611.539062 772.121094 614.9375 771.15625 617.992188 769.957031 C 610.84375 760.917969 605.085938 749.523438 602.035156 736.929688 C 601.574219 734.957031 602.769531 732.949219 604.777344 732.488281 C 606.75 731.984375 608.757812 733.21875 609.261719 735.191406 C 617.371094 768.644531 646.113281 791.9375 662.300781 780.039062 C 670.105469 774.320312 670.066406 758.445312 661.066406 741.214844 C 650.558594 721.128906 630.507812 703.667969 604.390625 694.242188 C 602.460938 693.546875 601.457031 691.460938 602.152344 689.53125 C 602.847656 687.597656 604.972656 686.59375 606.902344 687.25 C 607.136719 687.328125 607.367188 687.484375 607.636719 687.558594 C 604.664062 683.386719 601.535156 679.371094 598.328125 675.507812 L 605.320312 672.300781 C 610.535156 678.636719 615.441406 685.472656 620 692.582031 Z M 640.859375 700.191406 C 638.117188 700.230469 635.375 700.308594 632.710938 700.460938 C 654.882812 715.527344 670.144531 736.695312 674.703125 754.96875 C 684.863281 750.640625 694.054688 754.503906 701.550781 764.859375 L 702.363281 765.976562 C 705.335938 770.382812 707.886719 775.597656 710.050781 781.3125 L 710.976562 783.785156 L 711.554688 785.601562 L 712.558594 783.902344 C 714.839844 780.039062 717.464844 776.5625 720.480469 773.550781 L 722.371094 771.773438 C 729.675781 765.246094 738.171875 762.308594 747.636719 763.855469 L 748.253906 763.96875 L 746.671875 761.304688 C 720.980469 717.808594 683.703125 699.960938 640.859375 700.191406 Z M 261.074219 750.023438 L 259.222656 752.574219 L 259.839844 752.535156 C 269.417969 751.917969 277.570312 755.742188 284.175781 763.003906 L 285.839844 764.933594 C 288.542969 768.257812 290.78125 772.042969 292.675781 776.058594 L 293.449219 777.875 L 294.222656 776.175781 L 295.378906 773.742188 C 298.160156 768.296875 301.25 763.390625 304.652344 759.332031 L 305.578125 758.289062 C 314.8125 747.9375 325.242188 745.425781 335.710938 752.726562 C 341.15625 735.074219 356.148438 715.179688 377.394531 700.925781 C 375.847656 700.695312 374.265625 700.460938 372.71875 700.347656 C 330.109375 695.632812 291.167969 709.464844 261.074219 750.023438 Z M 261.074219 750.023438 " fill-opacity="1" fill-rule="nonzero"/><path fill="rgb(52.938843%, 18.03894%, 0%)" d="M 390.914062 312.699219 C 404.785156 312.507812 409.226562 320.890625 413.398438 344.222656 C 416.101562 358.167969 417.917969 366.628906 418.847656 369.71875 C 419.65625 372.539062 421.628906 377.636719 423.597656 382.234375 C 446.042969 370.914062 472.351562 364.617188 501.285156 364.617188 C 533.542969 364.617188 562.554688 372.5 586.507812 386.328125 C 588.167969 382.8125 589.519531 379.105469 590.679688 375.050781 C 592.183594 369.5625 593.847656 361.453125 595.621094 350.671875 C 600.492188 322.472656 605.242188 312.46875 620.308594 312.699219 C 646.113281 313.203125 657.742188 352.992188 649.359375 393.4375 C 646.769531 405.953125 641.402344 419.976562 634.449219 431.332031 C 636.496094 434.5 638.464844 437.78125 640.242188 441.144531 C 661.335938 437.164062 691.273438 423.761719 727.664062 403.324219 C 730.136719 402.011719 733.226562 403.441406 733.382812 406.261719 C 734.929688 435.851562 719.128906 477.996094 669.910156 512.53125 C 700.003906 508.164062 716.808594 505.5 735.546875 499.320312 C 738.09375 498.507812 740.761719 500.515625 740.644531 503.183594 C 739.640625 527.363281 712.832031 561.398438 671.765625 581.484375 C 668.441406 650.28125 602.382812 698.375 501.285156 698.375 C 397.519531 698.375 330.6875 647.695312 330.6875 576 C 330.6875 575.34375 330.6875 574.648438 330.726562 573.988281 C 324.390625 571.171875 317.476562 567.421875 310.714844 563.097656 C 286.417969 547.414062 269.535156 526.902344 266.214844 503.722656 C 265.867188 501.058594 268.300781 498.894531 270.886719 499.628906 C 290.011719 504.960938 308.167969 507.160156 338.300781 507.585938 C 286.570312 476.414062 273.515625 435.851562 273.515625 406.261719 C 273.515625 403.441406 276.566406 401.664062 279.039062 403.054688 C 315.894531 424.261719 344.210938 434.382812 364.683594 436.894531 C 367.195312 432.566406 369.9375 428.433594 372.914062 424.457031 C 367.851562 414.605469 363.949219 403.519531 361.863281 393.4375 C 353.480469 352.992188 365.109375 313.203125 390.914062 312.699219 Z M 501.285156 372.035156 C 473.433594 372.035156 448.167969 378.140625 426.726562 388.917969 L 427.191406 389.804688 C 428.96875 393.050781 433.527344 399.925781 440.75 410.316406 C 443.414062 414.835938 444.730469 419.046875 444.804688 424.109375 C 445.191406 446.164062 418.226562 461 397.210938 451.882812 C 389.757812 448.636719 382.800781 441.027344 376.929688 431.523438 C 361.554688 453.390625 352.941406 479.964844 352.941406 509.246094 C 352.941406 514.578125 353.25 519.832031 353.90625 525.046875 C 354.023438 525.933594 353.789062 526.824219 353.328125 527.558594 C 347.453125 536.363281 343.246094 545.675781 340.773438 555.253906 C 343.128906 562.015625 347.648438 568.582031 349.773438 570.859375 C 354.253906 575.613281 360.589844 579.554688 369.089844 582.140625 C 373.492188 583.492188 373.183594 589.867188 368.664062 590.792969 C 357.074219 593.113281 347.765625 591.992188 340.695312 588.59375 C 340 588.246094 339.34375 587.898438 338.722656 587.585938 C 339.035156 589.984375 339.382812 592.417969 339.84375 594.8125 C 343.167969 599.71875 347.570312 604.390625 350.96875 607.558594 C 356.03125 612.234375 362.675781 616.097656 371.136719 618.683594 C 375.578125 620.035156 375.230469 626.410156 370.710938 627.296875 C 363.601562 628.6875 357.691406 628.921875 352.902344 628.03125 C 377.125 666.546875 429.777344 690.960938 501.285156 690.960938 C 572.753906 690.960938 625.445312 666.546875 649.667969 628.03125 C 644.878906 628.921875 638.96875 628.6875 631.898438 627.296875 C 627.378906 626.410156 627.070312 620.035156 631.472656 618.683594 C 639.933594 616.097656 646.578125 612.234375 651.675781 607.558594 C 654.1875 605.203125 659.558594 599.292969 663.074219 592.957031 C 663.304688 591.449219 663.535156 589.90625 663.730469 588.320312 L 663.226562 588.59375 C 656.160156 591.992188 646.886719 593.113281 635.296875 590.792969 C 630.738281 589.867188 630.429688 583.492188 634.832031 582.140625 C 643.332031 579.554688 649.667969 575.613281 654.1875 570.859375 C 657.085938 567.730469 659.09375 564.410156 660.332031 561.125 C 661.027344 559.351562 661.488281 557.265625 661.835938 555.332031 C 659.328125 545.714844 655.117188 536.402344 649.242188 527.558594 C 648.742188 526.824219 648.546875 525.933594 648.664062 525.046875 C 649.28125 519.832031 649.628906 514.578125 649.628906 509.246094 C 649.628906 482.824219 642.558594 458.527344 629.890625 438.015625 C 625.058594 444.425781 619.691406 449.410156 614.011719 451.882812 C 592.996094 461 566.03125 446.164062 566.417969 424.109375 C 566.496094 419.085938 568 414.835938 570.976562 410.085938 C 572.519531 407.613281 579.359375 398.496094 580.789062 396.296875 C 581.5625 395.136719 582.332031 394.015625 583.027344 392.855469 C 560.121094 379.570312 532.304688 372.035156 501.285156 372.035156 Z M 732.183594 508.164062 C 706.921875 515.929688 672.382812 521.378906 656.351562 522.265625 L 656.160156 524.621094 C 666.628906 540.113281 671.882812 557.265625 671.882812 576 L 671.804688 573.0625 C 688.222656 564.449219 723.183594 542.160156 732.183594 508.164062 Z M 274.710938 508.28125 C 279.039062 525.820312 294.414062 543.742188 314.734375 556.878906 C 320.257812 560.429688 325.9375 563.558594 331.308594 566.03125 C 333.160156 550.734375 338.996094 535.554688 346.410156 524.582031 C 346.027344 521.570312 345.753906 518.402344 345.640625 514.964844 C 330.882812 515.699219 300.285156 514.65625 274.710938 508.28125 Z M 725.734375 412.597656 C 691.121094 432.183594 662.765625 444.351562 643.796875 448.214844 C 652.371094 466.601562 657.046875 487.152344 657.046875 509.246094 C 657.046875 510.019531 657.046875 510.871094 657.007812 511.796875 C 676.863281 497.695312 722.296875 460.457031 725.734375 412.597656 Z M 281.125 412.75 C 285.21875 450.761719 306.699219 480.855469 345.640625 502.988281 C 346.527344 481.589844 351.78125 461.695312 360.78125 444.003906 C 342.199219 441.492188 319.0625 433.378906 281.125 412.75 Z M 620.152344 320.117188 C 611.035156 320.003906 607.367188 327.070312 603.3125 349.746094 C 601.339844 361.953125 599.484375 371.03125 597.785156 377.019531 C 595.273438 386.097656 591.761719 393.320312 586.929688 400.46875 C 581.175781 408.425781 577.929688 412.867188 577.234375 414.027344 C 574.957031 417.695312 573.875 420.746094 573.835938 424.261719 C 573.566406 440.5625 594.695312 452.191406 611.074219 445.046875 C 624.519531 439.171875 637.769531 412.789062 642.097656 391.929688 C 649.667969 355.386719 639.46875 320.503906 620.152344 320.117188 Z M 391.070312 320.117188 C 371.753906 320.503906 361.554688 355.386719 369.128906 391.929688 C 373.453125 412.789062 386.703125 439.171875 400.1875 445.046875 C 416.527344 452.191406 437.699219 440.5625 437.390625 424.261719 C 437.351562 420.59375 436.382812 417.578125 434.375 414.066406 C 433.757812 413.097656 424.101562 399.617188 420.660156 393.398438 C 417.996094 388.492188 413.398438 378.875 411.738281 371.84375 C 410.617188 367.128906 408.722656 358.398438 406.097656 345.535156 C 402.542969 325.71875 399.53125 320.003906 391.070312 320.117188 Z M 391.070312 320.117188 " fill-opacity="1" fill-rule="nonzero"/><path fill="rgb(0%, 0%, 0%)" d="M 501.285156 523.308594 L 480.269531 523.308594 C 390.644531 492.792969 327.136719 517.359375 327.136719 517.359375 C 327.136719 517.359375 297.3125 515.777344 297.3125 532.078125 C 297.3125 548.765625 312.300781 542.199219 318.789062 559.929688 C 325.242188 577.738281 318.789062 635.875 403.277344 635.875 C 477.71875 635.875 486.296875 553.363281 494.988281 553.363281 L 507.542969 553.363281 C 516.234375 553.363281 524.8125 635.875 599.292969 635.875 C 683.742188 635.875 677.289062 577.738281 683.742188 559.929688 C 690.230469 542.199219 705.257812 548.765625 705.257812 532.078125 C 705.257812 515.777344 675.398438 517.359375 675.398438 517.359375 C 675.398438 517.359375 611.886719 492.792969 522.261719 523.308594 Z M 501.285156 523.308594 " fill-opacity="1" fill-rule="evenodd"/><path fill="rgb(16.859436%, 16.859436%, 16.859436%)" d="M 397.519531 619.882812 C 471.421875 619.882812 477.179688 557.84375 477.179688 545.789062 C 477.179688 533.777344 443.957031 524.003906 403.046875 524.003906 C 362.097656 524.003906 328.875 533.777344 328.875 545.789062 C 328.875 557.84375 323.851562 619.882812 397.519531 619.882812 Z M 605.011719 619.882812 C 531.109375 619.882812 525.390625 557.84375 525.390625 545.789062 C 525.390625 533.777344 558.574219 524.003906 599.523438 524.003906 C 640.472656 524.003906 673.660156 533.777344 673.660156 545.789062 C 673.660156 557.84375 678.679688 619.882812 605.011719 619.882812 Z M 605.011719 619.882812 " fill-opacity="1" fill-rule="evenodd"/><path fill="rgb(42.349243%, 42.349243%, 42.349243%)" d="M 666.007812 536.171875 L 606.207031 619.882812 C 605.820312 619.882812 605.398438 619.882812 605.011719 619.882812 C 603.347656 619.882812 601.765625 619.882812 600.179688 619.804688 L 661.566406 533.855469 C 663.1875 534.589844 664.695312 535.320312 666.007812 536.171875 Z M 656.816406 531.960938 L 594.347656 619.417969 C 588.4375 618.878906 583.027344 617.949219 578.085938 616.636719 L 641.515625 527.789062 C 647.234375 528.988281 652.410156 530.339844 656.816406 531.960938 Z M 656.816406 531.960938 " fill-opacity="1" fill-rule="evenodd"/><path fill="rgb(42.349243%, 42.349243%, 42.349243%)" d="M 456.742188 530.765625 C 458.480469 531.304688 460.105469 531.882812 461.648438 532.464844 L 399.183594 619.882812 L 397.519531 619.882812 C 396.054688 619.882812 394.585938 619.882812 393.15625 619.804688 Z M 435.652344 526.167969 C 441.445312 527.054688 446.855469 528.097656 451.683594 529.375 L 387.324219 619.417969 C 381.296875 618.917969 375.925781 617.949219 371.097656 616.597656 Z M 435.652344 526.167969 " fill-opacity="1" fill-rule="evenodd"/><path fill="rgb(52.938843%, 18.03894%, 0%)" d="M 468.835938 638.925781 C 470.378906 640.894531 473.355469 643.523438 477.914062 646.109375 C 485.292969 650.320312 494.5625 652.871094 505.726562 652.871094 C 516.890625 652.871094 526.125 650.320312 533.503906 646.109375 C 538.101562 643.523438 541.074219 640.894531 542.582031 638.925781 C 545.402344 635.296875 541.65625 630.351562 537.445312 632.011719 L 536.207031 632.476562 C 535.820312 632.628906 535.359375 632.785156 534.855469 632.9375 C 532.691406 633.632812 530.257812 634.40625 527.59375 635.101562 C 520.445312 636.917969 512.992188 638.039062 505.652344 638.191406 C 498.039062 638.308594 490.351562 637.148438 483.011719 635.101562 C 481.195312 634.601562 479.496094 634.058594 477.953125 633.558594 L 476.445312 632.976562 C 475.285156 632.589844 474.511719 632.28125 474.164062 632.089844 C 469.917969 630.234375 465.976562 635.257812 468.835938 638.925781 Z M 468.835938 638.925781 " fill-opacity="1" fill-rule="nonzero"/><path fill="rgb(100%, 100%, 100%)" d="M 442.101562 829.058594 C 442.101562 788.152344 448.128906 705.714844 502.753906 705.714844 C 557.417969 705.714844 566.804688 778.6875 566.804688 829.058594 C 566.804688 879.511719 550.078125 940.777344 502.753906 940.777344 C 452.609375 940.777344 442.101562 870.085938 442.101562 829.058594 Z M 442.101562 829.058594 " fill-opacity="1" fill-rule="evenodd"/><g fill="rgb(0%, 0%, 0%)" fill-opacity="1"><g transform="translate(184.767258, 364.960628)"><g><path d="M 53.539062 -194.328125 C 49.445312 -191.070312 42.765625 -188.429688 33.785156 -186.285156 C 24.804688 -184.140625 14.609375 -181.515625 3.484375 -178.285156 C -7.765625 -174.777344 -18.207031 -171.585938 -27.878906 -168.230469 C -37.550781 -164.878906 -44.882812 -160.339844 -50.160156 -154.746094 C -55.4375 -149.148438 -56.554688 -143.09375 -53.710938 -136.492188 C -52.113281 -132.445312 -48.933594 -128.554688 -44.507812 -124.453125 C -40.078125 -120.351562 -35.84375 -118.515625 -32.203125 -118.785156 C -31.417969 -123.308594 -22.667969 -128.402344 -5.671875 -133.953125 C -5.234375 -132.253906 -4.796875 -130.554688 -4.074219 -128.730469 C 7.882812 -88.996094 16.867188 -62.125 22.789062 -48.320312 C 35.875 -16.988281 48.390625 -3.679688 59.96875 -8.722656 C 63.8125 -10.242188 67.707031 -13.421875 71.804688 -17.847656 C 75.90625 -22.277344 77.742188 -26.511719 77.675781 -30.230469 C 70.570312 -31.636719 55.046875 -69.726562 31.433594 -144.871094 L 38.757812 -147.0625 C 43.976562 -148.660156 48.347656 -150.621094 51.714844 -153.355469 C 54.878906 -156.007812 57.351562 -158.625 58.578125 -161.449219 C 59.800781 -164.273438 60.664062 -167.421875 60.757812 -170.734375 C 60.851562 -174.050781 60.5 -176.71875 59.945312 -179.308594 C 59.390625 -181.894531 58.429688 -184.324219 57.390625 -186.957031 C 56.148438 -189.507812 55.226562 -191.246094 54.824219 -192.261719 C 54.300781 -192.988281 53.78125 -193.71875 53.539062 -194.328125 Z M 53.539062 -194.328125 "/></g></g></g><g fill="rgb(0%, 0%, 0%)" fill-opacity="1"><g transform="translate(266.367228, 332.154214)"><g><path d="M 49.390625 -148.710938 L 48.773438 -151.023438 L 48.71875 -151.234375 L 48.605469 -151.652344 L 48.382812 -152.496094 C 43.875 -167.734375 35.792969 -175.269531 24.128906 -175.09375 L 23.707031 -174.980469 C 22.390625 -174.855469 21.492188 -174.84375 20.863281 -174.675781 C 18.28125 -174.214844 16.332031 -173.917969 15.070312 -173.582031 C 13.597656 -173.191406 11.339844 -172.367188 8.144531 -170.839844 C 4.949219 -169.3125 2.339844 -167.269531 0.261719 -164.914062 C -1.8125 -162.5625 -4.183594 -158.777344 -6.964844 -153.984375 C -9.6875 -148.980469 -11.972656 -143.191406 -13.40625 -136.730469 C -14.996094 -130.003906 -16.554688 -121.480469 -17.878906 -111.21875 C -19.414062 -100.902344 -20.347656 -89.171875 -20.523438 -76.285156 C -20.695312 -63.402344 -20.410156 -47.941406 -19.511719 -30.164062 C -18.765625 -12.121094 -17.148438 7.488281 -14.875 28.730469 C -10.878906 27.667969 -6.699219 24.753906 -2.226562 20.410156 C 2.246094 16.066406 4.453125 11.652344 4.707031 7.53125 C 4.988281 5.203125 4.921875 0.71875 4.292969 -5.871094 C 3.457031 -12.40625 2.253906 -21.992188 0.425781 -34.792969 C -1.558594 -47.328125 -2.925781 -57.546875 -3.777344 -64.976562 C -3.777344 -64.976562 -3.507812 -64.824219 -3.089844 -64.9375 C -2.878906 -64.992188 -2.667969 -65.046875 -2.457031 -65.105469 C 0.175781 -65.355469 2.125 -65.648438 3.597656 -66.039062 C 4.019531 -66.152344 4.496094 -66.054688 5.335938 -66.277344 C 5.96875 -66.445312 6.386719 -66.558594 6.808594 -66.667969 C 7.019531 -66.726562 7.496094 -66.625 8.335938 -66.851562 C 9.234375 -66.863281 9.867188 -67.03125 10.285156 -67.144531 C 11.757812 -67.535156 14.128906 -67.941406 17.339844 -68.570312 L 24.65625 -69.839844 C 25.917969 -70.175781 27.867188 -70.46875 30.867188 -71.042969 C 35.203125 -49.675781 40.460938 -33.285156 46.441406 -21.8125 C 52.210938 -10.289062 59.246094 -5.855469 67.492188 -8.722656 C 71.375 -10.207031 75.554688 -13.121094 79.816406 -17.40625 C 84.082031 -21.695312 86.398438 -25.6875 86.652344 -29.808594 C 79.390625 -31.707031 66.8125 -71.371094 49.390625 -148.710938 Z M 22.980469 -79.527344 C 19.769531 -78.898438 17.398438 -78.496094 15.605469 -78.46875 C 12.394531 -77.839844 10.027344 -77.433594 8.707031 -77.308594 C 8.289062 -77.195312 7.65625 -77.027344 7.023438 -76.859375 C 6.183594 -76.636719 5.707031 -76.734375 5.230469 -76.832031 C 4.808594 -76.722656 4.125 -76.761719 3.492188 -76.597656 C 2.652344 -76.371094 2.230469 -76.261719 1.964844 -76.414062 L -3.882812 -75.535156 C -4.300781 -75.421875 -4.570312 -75.578125 -4.988281 -75.464844 C -10.402344 -122.894531 -6.460938 -148.714844 6.410156 -152.8125 C 7.671875 -153.148438 9.101562 -152.855469 10.488281 -151.871094 C 11.664062 -150.832031 13.066406 -148.953125 14.160156 -146.542969 C 15.308594 -143.921875 16.246094 -141.242188 17.125 -138.773438 C 17.796875 -136.25 18.691406 -132.886719 19.601562 -128.625 C 20.511719 -124.363281 21.140625 -121.152344 21.8125 -118.628906 C 22.273438 -116.046875 22.902344 -112.835938 23.597656 -108.519531 C 24.296875 -104.199219 24.757812 -101.621094 24.984375 -100.78125 C 25.386719 -98.410156 26.074219 -94.988281 26.828125 -90.460938 C 27.582031 -85.933594 28.210938 -82.722656 28.769531 -80.617188 C 27.507812 -80.28125 25.617188 -79.78125 22.980469 -79.527344 Z M 22.980469 -79.527344 "/></g></g></g><g fill="rgb(0%, 0%, 0%)" fill-opacity="1"><g transform="translate(349.822458, 309.730563)"><g><path d="M 83.265625 -65.992188 C 78.6875 -55.605469 74.0625 -46.972656 69.605469 -40.128906 C 64.929688 -33.25 60.457031 -27.945312 55.902344 -24.605469 C 51.382812 -21.054688 47.261719 -20.644531 43.542969 -23.378906 C 39.855469 -25.898438 36.535156 -31.777344 33.652344 -40.582031 C 30.765625 -49.386719 28.726562 -62.726562 27.753906 -80.628906 C 26.941406 -91.734375 26.785156 -101.394531 27.292969 -109.617188 C 27.832031 -117.625 28.449219 -123.664062 29.613281 -127.585938 C 30.59375 -131.257812 31.886719 -134.316406 33.742188 -136.582031 C 35.632812 -138.632812 36.972656 -139.9375 37.800781 -140.285156 C 38.660156 -140.414062 39.519531 -140.546875 40.8125 -140.742188 C 42.996094 -140.855469 44.699219 -139.796875 46.320312 -137.839844 C 47.9375 -135.886719 48.945312 -133.621094 49.769531 -131.101562 C 50.378906 -128.554688 50.839844 -125.542969 51.148438 -122.066406 C 51.460938 -118.59375 51.605469 -116.195312 51.800781 -114.902344 C 51.785156 -113.578125 51.734375 -112.46875 51.832031 -111.824219 L 58.792969 -108.042969 C 60.769531 -142.691406 55.035156 -162.949219 41.375 -168.789062 C 38.097656 -170.050781 34.492188 -170.597656 30.15625 -170.15625 C 25.855469 -169.5 21.101562 -167.453125 16.183594 -163.621094 C 11.050781 -159.753906 6.578125 -154.449219 2.765625 -147.703125 C -1.265625 -140.921875 -4.371094 -130.984375 -6.335938 -117.914062 C -8.519531 -104.8125 -9.046875 -89.539062 -7.746094 -72.347656 C -6.589844 -54.691406 -4.109375 -39.878906 -0.515625 -27.878906 C 3.113281 -15.664062 7.71875 -7.121094 12.941406 -1.753906 C 18.164062 3.609375 23.886719 6.480469 30.46875 6.355469 C 37.089844 6.445312 43.742188 3.886719 50.402344 -1.53125 C 57.058594 -6.949219 64 -14.835938 70.945312 -25.582031 C 77.675781 -36.296875 84.109375 -48.945312 89.75 -63.898438 Z M 83.265625 -65.992188 "/></g></g></g><g fill="rgb(0%, 0%, 0%)" fill-opacity="1"><g transform="translate(424.064309, 297.358709)"><g><path d="M 66.539062 -147.007812 C 63.695312 -147.332031 60.875 -147.003906 57.859375 -146.234375 C 58.207031 -148.425781 58.574219 -150.179688 58.757812 -151.058594 C 59.378906 -157.398438 58.304688 -162.585938 55.535156 -166.613281 C 52.769531 -170.425781 49.1875 -172.898438 45.015625 -173.824219 C 40.847656 -174.53125 36.917969 -174.8125 33.4375 -174.675781 C 29.742188 -174.53125 27.367188 -174.003906 26.53125 -173.097656 C 26.648438 -170.054688 24.730469 -163.445312 21.21875 -153.070312 C 17.714844 -142.480469 13.851562 -129.914062 9.644531 -114.9375 C 5.441406 -99.964844 2.710938 -86.351562 1.890625 -73.90625 C 0.203125 -50.320312 3.796875 -30.859375 13.109375 -15.542969 C 22.207031 -0.21875 34.953125 8.210938 51.554688 9.519531 C 63.582031 10.789062 74.652344 4.257812 84.761719 -10.078125 C 94.871094 -24.414062 100.914062 -42.507812 103.113281 -64.15625 C 105.105469 -85.578125 102.621094 -104.429688 95.449219 -120.703125 C 88.277344 -136.972656 78.566406 -145.738281 66.539062 -147.007812 Z M 61.574219 -12.652344 C 53.921875 -13.441406 48.003906 -19.960938 43.820312 -32.210938 C 39.636719 -44.460938 38.414062 -59.003906 40.148438 -75.84375 C 40.402344 -80.425781 41.09375 -85.027344 42.210938 -89.863281 C 45.339844 -76.699219 50.855469 -63.847656 59.179688 -51.542969 C 67.292969 -39.011719 74.390625 -30.144531 80.46875 -25.15625 C 74.304688 -15.765625 68.148438 -11.605469 61.574219 -12.652344 Z M 94.382812 -70.132812 C 92.765625 -55.910156 89.753906 -43.8125 85.144531 -33.613281 C 79.304688 -38.175781 74.222656 -45.601562 69.664062 -56.3125 C 64.886719 -67.011719 61.640625 -77.558594 59.691406 -88.371094 C 57.527344 -99.175781 57.359375 -108.96875 58.976562 -117.746094 C 60.375 -126.511719 63.875 -131.660156 69.476562 -133.183594 C 70.554688 -133.445312 71.859375 -133.496094 73.175781 -133.332031 C 80.617188 -132.316406 86.320312 -125.789062 90.503906 -113.539062 C 94.695312 -101.070312 95.910156 -86.742188 94.382812 -70.132812 Z M 94.382812 -70.132812 "/></g></g></g><g fill="rgb(0%, 0%, 0%)" fill-opacity="1"><g transform="translate(574.847521, 296.918843)"><g><path d="M 99.167969 -38.132812 C 91.695312 -29.589844 84.707031 -22.730469 78.40625 -17.527344 C 71.894531 -12.359375 66.042969 -8.628906 60.699219 -6.800781 C 55.324219 -4.761719 51.269531 -5.601562 48.535156 -9.320312 C 45.769531 -12.824219 44.355469 -19.425781 44.226562 -28.691406 C 44.101562 -37.957031 46.136719 -51.292969 50.554688 -68.671875 C 53.089844 -79.511719 55.824219 -88.78125 58.761719 -96.480469 C 61.664062 -103.960938 64.058594 -109.539062 66.335938 -112.933594 C 68.367188 -116.148438 70.515625 -118.679688 72.964844 -120.289062 C 75.378906 -121.679688 77.046875 -122.527344 77.941406 -122.609375 C 78.800781 -122.480469 79.664062 -122.347656 80.953125 -122.152344 C 83.070312 -121.605469 84.382812 -120.085938 85.34375 -117.738281 C 86.304688 -115.390625 86.589844 -112.925781 86.625 -110.277344 C 86.445312 -107.664062 85.988281 -104.652344 85.246094 -101.242188 C 84.503906 -97.832031 83.929688 -95.5 83.730469 -94.207031 C 83.320312 -92.949219 82.941406 -91.90625 82.839844 -91.261719 L 88.359375 -85.574219 C 100.582031 -118.054688 101.152344 -139.101562 89.859375 -148.75 C 87.109375 -150.929688 83.832031 -152.53125 79.5625 -153.40625 C 75.257812 -154.0625 70.113281 -153.527344 64.277344 -151.335938 C 58.222656 -149.175781 52.367188 -145.449219 46.714844 -140.148438 C 40.847656 -134.878906 34.917969 -126.316406 29.140625 -114.429688 C 23.148438 -102.578125 18.085938 -88.160156 14.199219 -71.363281 C 10.03125 -54.167969 7.980469 -39.289062 7.828125 -26.761719 C 7.644531 -14.023438 9.492188 -4.496094 12.875 2.1875 C 16.257812 8.867188 20.863281 13.3125 27.183594 15.160156 C 33.476562 17.21875 40.589844 16.765625 48.5625 13.578125 C 56.53125 10.394531 65.511719 4.9375 75.347656 -3.246094 C 84.96875 -11.464844 94.882812 -21.617188 104.730469 -34.203125 Z M 99.167969 -38.132812 "/></g></g></g><g fill="rgb(0%, 0%, 0%)" fill-opacity="1"><g transform="translate(649.668338, 307.532045)"><g><path d="M 116.757812 -104.503906 L 117.371094 -106.820312 L 117.429688 -107.03125 L 117.539062 -107.449219 L 117.765625 -108.292969 C 121.429688 -123.757812 118.15625 -134.308594 107.949219 -139.953125 L 107.527344 -140.066406 C 106.320312 -140.613281 105.535156 -141.046875 104.90625 -141.214844 C 102.4375 -142.09375 100.601562 -142.808594 99.339844 -143.144531 C 97.867188 -143.535156 95.496094 -143.941406 91.964844 -144.207031 C 88.429688 -144.46875 85.152344 -143.992188 82.179688 -142.980469 C 79.207031 -141.96875 75.269531 -139.863281 70.476562 -137.085938 C 65.628906 -134.097656 60.765625 -130.210938 56.3125 -125.316406 C 51.589844 -120.265625 46 -113.648438 39.753906 -105.402344 C 33.292969 -97.210938 26.65625 -87.492188 20.101562 -76.398438 C 13.546875 -65.304688 6.109375 -51.746094 -1.941406 -35.871094 C -10.257812 -19.84375 -18.605469 -2.023438 -27.1875 17.539062 C -23.191406 18.601562 -18.117188 18.152344 -12.074219 16.605469 C -6.035156 15.058594 -1.925781 12.324219 0.339844 8.875 C 1.742188 6.996094 3.914062 3.066406 6.644531 -2.960938 C 9.164062 -9.046875 12.886719 -17.964844 17.660156 -29.980469 C 22.167969 -41.84375 26.058594 -51.394531 29.011719 -58.265625 C 29.011719 -58.265625 29.167969 -57.996094 29.589844 -57.886719 C 29.796875 -57.828125 30.007812 -57.773438 30.21875 -57.71875 C 32.632812 -56.625 34.46875 -55.910156 35.941406 -55.519531 C 36.359375 -55.410156 36.726562 -55.085938 37.566406 -54.863281 C 38.199219 -54.695312 38.617188 -54.582031 39.039062 -54.472656 C 39.25 -54.414062 39.613281 -54.09375 40.453125 -53.867188 C 41.238281 -53.433594 41.871094 -53.265625 42.292969 -53.15625 C 43.765625 -52.761719 46.019531 -51.9375 49.121094 -50.886719 L 56.101562 -48.355469 C 57.363281 -48.019531 59.203125 -47.304688 62.089844 -46.3125 C 55.234375 -25.617188 51.652344 -8.777344 51.140625 4.148438 C 50.421875 17.019531 54.320312 24.359375 62.902344 25.96875 C 67.011719 26.609375 72.085938 26.160156 77.914062 24.558594 C 83.746094 22.957031 87.742188 20.640625 90.007812 17.191406 C 84.652344 11.9375 93.445312 -28.734375 116.757812 -104.503906 Z M 59.460938 -57.59375 C 56.363281 -58.644531 54.105469 -59.46875 52.535156 -60.339844 C 49.4375 -61.386719 47.179688 -62.214844 45.972656 -62.757812 C 45.550781 -62.871094 44.921875 -63.039062 44.289062 -63.207031 C 43.449219 -63.429688 43.085938 -63.753906 42.71875 -64.074219 C 42.300781 -64.1875 41.722656 -64.566406 41.09375 -64.734375 C 40.253906 -64.957031 39.832031 -65.070312 39.675781 -65.335938 L 34.167969 -67.476562 C 33.746094 -67.589844 33.589844 -67.855469 33.171875 -67.96875 C 52.042969 -111.8125 68.292969 -132.261719 81.5 -129.425781 C 82.761719 -129.089844 83.855469 -128.121094 84.570312 -126.582031 C 85.078125 -125.09375 85.359375 -122.769531 85.109375 -120.132812 C 84.800781 -117.285156 84.285156 -114.496094 83.824219 -111.917969 C 83.152344 -109.394531 82.257812 -106.027344 80.925781 -101.878906 C 79.597656 -97.726562 78.546875 -94.628906 77.875 -92.105469 C 76.996094 -89.636719 75.945312 -86.539062 74.40625 -82.445312 C 72.867188 -78.351562 71.984375 -75.882812 71.761719 -75.039062 C 70.933594 -72.785156 69.828125 -69.472656 68.234375 -65.167969 C 66.636719 -60.863281 65.589844 -57.765625 65.027344 -55.664062 C 63.765625 -56 61.875 -56.503906 59.460938 -57.59375 Z M 59.460938 -57.59375 "/></g></g></g><g fill="rgb(0%, 0%, 0%)" fill-opacity="1"><g transform="translate(732.727928, 328.964337)"><g><path d="M 171.925781 -105.214844 C 166.710938 -105.640625 160.03125 -108.277344 152.011719 -112.851562 C 143.992188 -117.425781 134.757812 -122.480469 124.429688 -127.734375 C 113.820312 -132.863281 104.019531 -137.671875 94.667969 -141.835938 C 85.316406 -146 76.863281 -147.703125 69.1875 -147.226562 C 61.507812 -146.75 56.554688 -143.09375 54.117188 -136.332031 C 52.515625 -132.285156 52.171875 -127.273438 52.601562 -121.253906 C 53.03125 -115.234375 54.867188 -110.996094 57.707031 -108.707031 C 61.371094 -111.46875 71.242188 -109.207031 87.4375 -101.636719 C 86.597656 -100.097656 85.753906 -98.558594 85.035156 -96.734375 C 66.597656 -59.558594 54.78125 -33.808594 49.667969 -19.683594 C 37.796875 12.128906 37.832031 30.394531 49.730469 34.628906 C 53.574219 36.152344 58.585938 36.492188 64.605469 36.066406 C 70.625 35.636719 74.863281 33.800781 77.355469 31.042969 C 73.128906 25.160156 87.84375 -13.253906 121.980469 -84.238281 L 128.824219 -80.832031 C 133.726562 -78.425781 138.257812 -76.871094 142.582031 -76.5625 C 146.707031 -76.339844 150.300781 -76.554688 153.125 -77.78125 C 155.949219 -79.003906 158.730469 -80.710938 161.066406 -83.066406 C 163.398438 -85.417969 164.96875 -87.609375 166.332031 -89.878906 C 167.695312 -92.144531 168.65625 -94.574219 169.695312 -97.207031 C 170.535156 -99.917969 171.050781 -101.816406 171.453125 -102.832031 C 171.570312 -103.71875 171.6875 -104.609375 171.925781 -105.214844 Z M 171.925781 -105.214844 "/></g></g></g></svg>